<svg data-v-2cb57da0="" version="1.0" xmlns="http://www.w3.org/2000/svg" xmlns:xlink="http://www.w3.org/1999/xlink" width="3400" height="2500" viewBox="0 0 340.000000 250.000000" preserveAspectRatio="xMidYMid meet" color-interpolation-filters="sRGB" style=""> <rect data-v-2cb57da0="" x="0" y="0" width="100%" height="100%" fill="url(#watermark)" fill-opacity="1" class="watermarklayer"></rect> <g data-v-2cb57da0="" fill="#38b137" class="pmspacesvg" transform="translate(94.52727508544922,49.52727508544922)"><!----> <circle data-gra="graph-name" stroke="#38b137" stroke-width="2" fill-opacity="0" cx="75.47272408712601" cy="75.47272408712601" r="75.47272408712601"></circle> <g mask="url(#724f805c-45ff-4488-9f0d-5d8d266aed41)"><circle data-gra="graph-name" fill="#38b137" cx="75.47272408712601" cy="75.47272408712601" r="69.92619198330058"></circle> <g fill="#ffffff" transform="translate(25.29778207052445,42.70652688253617)"><g data-gra="path-name" fill-rule="" class="tp-name" transform="translate(0,0)"><g transform="scale(1)"><g><path d="M7.09-10.74L7.09-10.74Q10.74-12.89 19.55-13.54L19.55-13.54Q23.63-13.96 24.49-16.54L24.49-16.54Q25.57-19.77 27.71-19.98L27.71-19.98Q30.29-19.55 31.37-16.76L31.37-16.76Q31.8-14.61 35.23-14.61L35.23-14.61Q36.95-14.61 40.61-14.39L40.61-14.39Q43.4-14.39 44.26-14.39L44.26-14.39Q49.2-13.75 48.98-11.82L48.98-11.82Q48.13-9.02 44.47-9.02L44.47-9.02Q37.17-9.45 34.16-9.45L34.16-9.45Q30.51-9.45 29-6.45L29-6.45Q27.5-1.29 28.57 3.65L28.57 3.65Q29 7.09 26.86 7.52L26.86 7.52Q25.35 7.52 25.35 4.94L25.35 4.94Q25.57-3.22 24.92-7.09L24.92-7.09Q24.71-10.31 21.48-10.31L21.48-10.31Q11.82-10.74 10.31-8.81L10.31-8.81Q8.38-7.09 6.66-7.95L6.66-7.95Q4.94-9.45 7.09-10.74ZM38.67-37.17L38.67-37.17Q41.25-38.89 42.54-36.52L42.54-36.52Q43.61-33.95 41.46-31.15L41.46-31.15Q40.39-29.86 38.46-28.14L38.46-28.14Q35.02-25.57 36.31-20.84L36.31-20.84Q37.81-17.62 42.32-19.77L42.32-19.77Q44.69-20.63 45.12-19.12L45.12-19.12Q45.33-17.4 43.4-16.76L43.4-16.76Q41.25-16.33 36.95-16.54L36.95-16.54Q31.58-16.11 31.37-20.84L31.37-20.84Q31.15-23.2 29.65-22.99L29.65-22.99Q28.57-22.99 27.71-21.7L27.71-21.7Q26.64-20.84 25.14-21.05L25.14-21.05Q24.28-21.7 24.92-22.77L24.92-22.77Q25.14-23.2 25.78-24.06L25.78-24.06Q26.21-24.71 28.36-27.93L28.36-27.93Q30.51-30.94 30.29-34.38L30.29-34.38Q30.29-37.38 30.94-39.75L30.94-39.75Q31.37-42.75 34.59-41.68L34.59-41.68Q36.95-41.46 36.95-38.89L36.95-38.89Q36.95-37.38 36.95-36.31L36.95-36.31Q36.74-35.45 38.67-37.17ZM23.85-35.23L23.85-35.23Q22.34-31.15 21.27-27.93L21.27-27.93Q19.98-24.49 20.63-18.26L20.63-18.26Q20.84-14.82 18.91-14.61L18.91-14.61Q17.19-14.61 17.19-17.19L17.19-17.19Q17.4-18.69 17.4-23.63L17.4-23.63Q17.19-24.28 16.54-24.49L16.54-24.49Q15.9-24.49 15.68-23.85L15.68-23.85Q15.04-22.77 14.82-20.84L14.82-20.84Q14.39-18.69 13.11-18.69L13.11-18.69Q11.6-18.91 11.82-21.27L11.82-21.27Q14.39-31.8 18.05-39.32L18.05-39.32Q19.77-42.32 22.34-41.04L22.34-41.04Q24.92-39.96 23.85-35.23ZM89.38-32.44L89.38-32.44Q90.88-32.66 91.31-30.29L91.31-30.29Q91.31-29.86 91.52-29.86L91.52-29.86Q91.74-29.86 91.95-30.29L91.95-30.29Q92.17-31.8 93.03-32.01L93.03-32.01Q94.1-31.8 94.1-30.29L94.1-30.29Q94.1-29.65 94.1-28.79L94.1-28.79Q94.1-28.14 94.96-27.71L94.96-27.71Q95.82-27.29 95.82-26.21L95.82-26.21Q95.39-24.71 93.03-24.28L93.03-24.28Q91.31-24.06 90.88-20.63L90.88-20.63Q90.88-19.55 91.31-18.91L91.31-18.91Q91.52-18.69 91.95-17.83L91.95-17.83Q92.38-16.97 92.38-16.54L92.38-16.54Q92.38-15.04 94.96-15.47L94.96-15.47Q98.4-15.47 100.33-15.25L100.33-15.25Q103.98-14.61 103.98-12.68L103.98-12.68Q103.77-9.67 98.83-9.45L98.83-9.45Q95.82-9.67 96.04-7.95L96.04-7.95Q97.11-3.65 103.77-1.5L103.77-1.5Q106.78-0.86 106.13 1.07L106.13 1.07Q105.7 3.22 103.55 3.01L103.55 3.01Q97.97 1.07 93.03-6.45L93.03-6.45Q90.66-10.74 88.3-7.3L88.3-7.3Q83.57-0.21 77.77 0L77.77 0Q74.77-0.21 75.2-2.15L75.2-2.15Q75.63-3.44 77.13-3.22L77.13-3.22Q82.5-3.65 83.79-7.95L83.79-7.95Q84.43-10.1 82.71-9.88L82.71-9.88Q79.71-9.88 77.34-9.45L77.34-9.45Q75.2-8.81 74.34-8.16L74.34-8.16Q73.05-7.3 71.97-7.95L71.97-7.95Q71.11-9.45 72.62-10.96L72.62-10.96Q74.12-12.46 82.29-13.75L82.29-13.75Q85.72-14.18 86.37-15.9L86.37-15.9Q86.8-17.4 87.66-18.05L87.66-18.05Q89.16-19.34 88.95-19.98L88.95-19.98Q88.95-22.56 88.73-22.77L88.73-22.77Q88.52-24.06 87.23-24.06L87.23-24.06Q84.43-23.63 84.22-24.71L84.22-24.71Q84-26 86.8-27.07L86.8-27.07Q88.52-27.29 88.52-29.43L88.52-29.43Q88.52-32.23 89.38-32.44ZM88.52-42.75L88.52-42.75Q90.66-41.89 90.23-38.67L90.23-38.67Q90.02-36.74 91.95-36.95L91.95-36.95Q97.11-37.81 97.75-35.45L97.75-35.45Q98.4-33.52 98.61-28.57L98.61-28.57Q98.61-22.56 98.18-18.69L98.18-18.69Q97.97-16.97 96.89-17.19L96.89-17.19Q95.61-17.19 96.04-19.98L96.04-19.98Q96.25-26.21 95.39-30.94L95.39-30.94Q94.53-34.16 90.45-33.95L90.45-33.95Q84.86-33.52 83.57-27.29L83.57-27.29Q83.57-27.07 83.57-26.64L83.57-26.64Q83.36-21.48 84-18.05L84-18.05Q84.65-15.68 82.5-15.04L82.5-15.04Q81-15.47 80.35-17.62L80.35-17.62Q80.35-21.7 80.14-23.63L80.14-23.63Q80.14-24.92 79.28-24.92L79.28-24.92Q78.63-24.92 77.99-23.42L77.99-23.42Q77.56-22.13 76.7-22.56L76.7-22.56Q75.84-23.2 76.05-24.49L76.05-24.49Q77.56-31.37 83.36-39.96L83.36-39.96Q86.58-44.04 88.52-42.75ZM65.31-11.82L65.31-11.82Q66.17-12.46 66.6-11.17L66.6-11.17Q67.03-6.66 69.39-1.93L69.39-1.93Q72.19 2.15 69.61 3.87L69.61 3.87Q68.11 4.51 66.82 2.79L66.82 2.79Q64.88 0.43 64.45-9.45L64.45-9.45Q64.67-10.53 65.31-11.82ZM62.09-27.07L62.09-27.07Q62.09-27.93 62.73-28.14L62.73-28.14Q63.38-28.14 63.81-27.29L63.81-27.29Q64.02-25.57 67.89-23.63L67.89-23.63Q70.9-21.91 69.82-19.12L69.82-19.12Q68.75-17.4 66.17-18.48L66.17-18.48Q62.52-22.13 62.09-27.07ZM65.96-39.75L65.96-39.75Q66.17-40.61 66.6-40.61L66.6-40.61Q67.25-40.82 67.68-40.18L67.68-40.18Q68.75-38.46 72.19-36.09L72.19-36.09Q74.12-34.59 73.05-32.01L73.05-32.01Q71.54-30.51 70.04-31.37L70.04-31.37Q66.17-33.95 65.96-39.75ZM92.17-21.91L92.17-21.91Q92.38-23.42 93.03-22.99L93.03-22.99Q94.32-21.91 94.75-18.91L94.75-18.91Q94.53-17.62 93.89-17.83L93.89-17.83Q92.38-18.05 92.17-21.91ZM85.08-22.34L85.08-22.34Q85.08-22.99 85.51-22.99L85.51-22.99Q86.15-22.99 86.37-22.56L86.37-22.56Q86.8-21.48 87.01-19.77L87.01-19.77Q87.01-18.26 86.15-18.26L86.15-18.26Q84.86-18.26 85.08-22.34ZM87.01-31.15L87.01-31.15Q87.87-30.72 87.44-28.79L87.44-28.79Q87.01-27.29 85.94-27.5L85.94-27.5Q84.65-27.93 85.51-29.86L85.51-29.86Q85.94-31.37 87.01-31.15Z" transform="translate(-5.89555549621582, 43.05988693237305)"></path></g> <!----> <!----> <!----> <!----> <!----> <!----> <!----></g></g> <g data-gra="path-slogan" fill-rule="" class="tp-slogan" transform="translate(28.469942092895508,56.57988739013672)"><!----> <!----> <g transform="scale(1, 1)"><g transform="scale(1)"><path d="M2.06-5.06L6.56-5.06L6.56-8.58L7.73-8.58L7.73 0L6.56 0L6.56-3.98L2.06-3.98L2.06 0L0.89 0L0.89-8.58L2.06-8.58L2.06-5.06ZM15.19-3.19L15.19-8.58L16.36-8.58L16.36-3.05Q16.22 0.05 12.84 0.14L12.84 0.14Q9.70 0.05 9.56-2.86L9.56-2.86L9.56-8.58L10.73-8.58L10.73-3.19Q10.78-0.84 12.89-0.80L12.89-0.80Q15.19-0.84 15.19-3.19L15.19-3.19ZM23.81 0L22.97-2.48L19.50-2.48L18.61 0L17.44 0L20.67-8.58L21.98-8.58L25.08 0L23.81 0ZM21.23-7.31L19.88-3.52L22.55-3.52L21.28-7.31L21.23-7.31ZM26.81-5.53L25.92-5.53L25.92-8.58L26.81-8.58L26.81-5.53ZM34.03 0L33.19-2.48L29.72-2.48L28.83 0L27.66 0L30.89-8.58L32.20-8.58L35.30 0L34.03 0ZM31.45-7.31L30.09-3.52L32.77-3.52L31.50-7.31L31.45-7.31ZM43.13-4.27L43.13-4.27Q42.94-7.64 40.13-7.83L40.13-7.83Q37.27-7.69 37.13-4.27L37.13-4.27Q37.27-0.94 40.13-0.80L40.13-0.80Q42.94-0.98 43.13-4.27ZM44.30-4.27L44.30-4.27Q44.02 0 40.13 0.14L40.13 0.14Q36.19 0 35.91-4.27L35.91-4.27Q36.14-8.72 40.13-8.81L40.13-8.81Q44.02-8.67 44.30-4.27Z" transform="translate(-0.890625, 8.8125)"></path></g></g></g></g></g></g><mask id="724f805c-45ff-4488-9f0d-5d8d266aed41"><circle data-gra="graph-name" cx="75.47272408712601" cy="75.47272408712601" r="69.92619198330058" fill="white"></circle> <g transform="translate(25.29778207052445,42.70652688253617)" fill="black"><g data-gra="path-name" fill-rule="" class="tp-name" transform="translate(0,0)"><g transform="scale(1)"><g><path d="M7.09-10.74L7.09-10.74Q10.74-12.89 19.55-13.54L19.55-13.54Q23.63-13.96 24.49-16.54L24.49-16.54Q25.57-19.77 27.71-19.98L27.71-19.98Q30.29-19.55 31.37-16.76L31.37-16.76Q31.8-14.61 35.23-14.61L35.23-14.61Q36.95-14.61 40.61-14.39L40.61-14.39Q43.4-14.39 44.26-14.39L44.26-14.39Q49.2-13.75 48.98-11.82L48.98-11.82Q48.13-9.02 44.47-9.02L44.47-9.02Q37.17-9.45 34.16-9.45L34.16-9.45Q30.51-9.45 29-6.45L29-6.45Q27.5-1.29 28.57 3.65L28.57 3.65Q29 7.09 26.86 7.52L26.86 7.52Q25.35 7.52 25.35 4.94L25.35 4.94Q25.57-3.22 24.92-7.09L24.92-7.09Q24.71-10.31 21.48-10.31L21.48-10.31Q11.82-10.74 10.31-8.81L10.31-8.81Q8.38-7.09 6.66-7.95L6.66-7.95Q4.94-9.45 7.09-10.74ZM38.67-37.17L38.67-37.17Q41.25-38.89 42.54-36.52L42.54-36.52Q43.61-33.95 41.46-31.15L41.46-31.15Q40.39-29.86 38.46-28.14L38.46-28.14Q35.02-25.57 36.31-20.84L36.31-20.84Q37.81-17.62 42.32-19.77L42.32-19.77Q44.69-20.63 45.12-19.12L45.12-19.12Q45.33-17.4 43.4-16.76L43.4-16.76Q41.25-16.33 36.95-16.54L36.95-16.54Q31.58-16.11 31.37-20.84L31.37-20.84Q31.15-23.2 29.65-22.99L29.65-22.99Q28.57-22.99 27.71-21.7L27.71-21.7Q26.64-20.84 25.14-21.05L25.14-21.05Q24.28-21.7 24.92-22.77L24.92-22.77Q25.14-23.2 25.78-24.06L25.78-24.06Q26.21-24.71 28.36-27.93L28.36-27.93Q30.51-30.94 30.29-34.38L30.29-34.38Q30.29-37.38 30.94-39.75L30.94-39.75Q31.37-42.75 34.59-41.68L34.59-41.68Q36.95-41.46 36.95-38.89L36.95-38.89Q36.95-37.38 36.95-36.31L36.95-36.31Q36.74-35.45 38.67-37.17ZM23.85-35.23L23.85-35.23Q22.34-31.15 21.27-27.93L21.27-27.93Q19.98-24.49 20.63-18.26L20.63-18.26Q20.84-14.82 18.91-14.61L18.91-14.61Q17.19-14.61 17.19-17.19L17.19-17.19Q17.4-18.69 17.4-23.63L17.4-23.63Q17.19-24.28 16.54-24.49L16.54-24.49Q15.9-24.49 15.68-23.85L15.68-23.85Q15.04-22.77 14.82-20.84L14.82-20.84Q14.39-18.69 13.11-18.69L13.11-18.69Q11.6-18.91 11.82-21.27L11.82-21.27Q14.39-31.8 18.05-39.32L18.05-39.32Q19.77-42.32 22.34-41.04L22.34-41.04Q24.92-39.96 23.85-35.23ZM89.38-32.44L89.38-32.44Q90.88-32.66 91.31-30.29L91.31-30.29Q91.31-29.86 91.52-29.86L91.52-29.86Q91.74-29.86 91.95-30.29L91.95-30.29Q92.17-31.8 93.03-32.01L93.03-32.01Q94.1-31.8 94.1-30.29L94.1-30.29Q94.1-29.65 94.1-28.79L94.1-28.79Q94.1-28.14 94.96-27.71L94.96-27.71Q95.82-27.29 95.82-26.21L95.82-26.21Q95.39-24.71 93.03-24.28L93.03-24.28Q91.31-24.06 90.88-20.63L90.88-20.63Q90.88-19.55 91.31-18.91L91.31-18.91Q91.52-18.69 91.95-17.83L91.95-17.83Q92.38-16.97 92.38-16.54L92.38-16.54Q92.38-15.04 94.96-15.47L94.96-15.47Q98.4-15.47 100.33-15.25L100.33-15.25Q103.98-14.61 103.98-12.68L103.98-12.68Q103.77-9.67 98.83-9.45L98.83-9.45Q95.82-9.67 96.04-7.95L96.04-7.95Q97.11-3.65 103.77-1.5L103.77-1.5Q106.78-0.86 106.13 1.07L106.13 1.07Q105.7 3.22 103.55 3.01L103.55 3.01Q97.97 1.07 93.03-6.45L93.03-6.45Q90.66-10.74 88.3-7.3L88.3-7.3Q83.57-0.21 77.77 0L77.77 0Q74.77-0.21 75.2-2.15L75.2-2.15Q75.63-3.44 77.13-3.22L77.13-3.22Q82.5-3.65 83.79-7.95L83.79-7.95Q84.43-10.1 82.71-9.88L82.71-9.88Q79.71-9.88 77.34-9.45L77.34-9.45Q75.2-8.81 74.34-8.16L74.34-8.16Q73.05-7.3 71.97-7.95L71.97-7.95Q71.11-9.45 72.62-10.96L72.62-10.96Q74.12-12.46 82.29-13.75L82.29-13.75Q85.72-14.18 86.37-15.9L86.37-15.9Q86.8-17.4 87.66-18.05L87.66-18.05Q89.16-19.34 88.95-19.98L88.95-19.98Q88.95-22.56 88.73-22.77L88.73-22.77Q88.52-24.06 87.23-24.06L87.23-24.06Q84.43-23.63 84.22-24.71L84.22-24.71Q84-26 86.8-27.07L86.8-27.07Q88.52-27.29 88.52-29.43L88.52-29.43Q88.52-32.23 89.38-32.44ZM88.52-42.75L88.52-42.75Q90.66-41.89 90.23-38.67L90.23-38.67Q90.02-36.74 91.95-36.95L91.95-36.95Q97.11-37.81 97.75-35.45L97.75-35.45Q98.4-33.52 98.61-28.57L98.61-28.57Q98.61-22.56 98.18-18.69L98.18-18.69Q97.97-16.97 96.89-17.19L96.89-17.19Q95.61-17.19 96.04-19.98L96.04-19.98Q96.25-26.21 95.39-30.94L95.39-30.94Q94.53-34.16 90.45-33.95L90.45-33.95Q84.86-33.52 83.57-27.29L83.57-27.29Q83.57-27.07 83.57-26.64L83.57-26.64Q83.36-21.48 84-18.05L84-18.05Q84.65-15.68 82.5-15.04L82.5-15.04Q81-15.47 80.35-17.62L80.35-17.62Q80.35-21.7 80.14-23.63L80.14-23.63Q80.14-24.92 79.28-24.92L79.28-24.92Q78.63-24.92 77.99-23.42L77.99-23.42Q77.56-22.13 76.7-22.56L76.7-22.56Q75.84-23.2 76.05-24.49L76.05-24.49Q77.56-31.37 83.36-39.96L83.36-39.96Q86.58-44.04 88.52-42.75ZM65.31-11.82L65.31-11.82Q66.17-12.46 66.6-11.17L66.6-11.17Q67.03-6.66 69.39-1.93L69.39-1.93Q72.19 2.15 69.61 3.87L69.61 3.87Q68.11 4.51 66.82 2.79L66.82 2.79Q64.88 0.43 64.45-9.45L64.45-9.45Q64.67-10.53 65.31-11.82ZM62.09-27.07L62.09-27.07Q62.09-27.93 62.73-28.14L62.73-28.14Q63.38-28.14 63.81-27.29L63.81-27.29Q64.02-25.57 67.89-23.63L67.89-23.63Q70.9-21.91 69.82-19.12L69.82-19.12Q68.75-17.4 66.17-18.48L66.17-18.48Q62.52-22.13 62.09-27.07ZM65.96-39.75L65.96-39.75Q66.17-40.61 66.6-40.61L66.6-40.61Q67.25-40.82 67.68-40.18L67.68-40.18Q68.75-38.46 72.19-36.09L72.19-36.09Q74.12-34.59 73.05-32.01L73.05-32.01Q71.54-30.51 70.04-31.37L70.04-31.37Q66.17-33.95 65.96-39.75ZM92.17-21.91L92.17-21.91Q92.38-23.42 93.03-22.99L93.03-22.99Q94.32-21.91 94.75-18.91L94.75-18.91Q94.53-17.62 93.89-17.83L93.89-17.83Q92.38-18.05 92.17-21.91ZM85.08-22.34L85.08-22.34Q85.08-22.99 85.51-22.99L85.51-22.99Q86.15-22.99 86.37-22.56L86.37-22.56Q86.8-21.48 87.01-19.77L87.01-19.77Q87.01-18.26 86.15-18.26L86.15-18.26Q84.86-18.26 85.08-22.34ZM87.01-31.15L87.01-31.15Q87.87-30.72 87.44-28.79L87.44-28.79Q87.01-27.29 85.94-27.5L85.94-27.5Q84.65-27.93 85.51-29.86L85.51-29.86Q85.94-31.37 87.01-31.15Z" transform="translate(-5.89555549621582, 43.05988693237305)"></path></g>       </g></g> <g data-gra="path-slogan" fill-rule="" class="tp-slogan" transform="translate(28.469942092895508,56.57988739013672)">  <g transform="scale(1, 1)"><g transform="scale(1)"><path d="M2.06-5.06L6.56-5.06L6.56-8.58L7.73-8.58L7.73 0L6.56 0L6.56-3.98L2.06-3.98L2.06 0L0.89 0L0.89-8.58L2.06-8.58L2.06-5.06ZM15.19-3.19L15.19-8.58L16.36-8.58L16.36-3.05Q16.22 0.05 12.84 0.14L12.84 0.14Q9.70 0.05 9.56-2.86L9.56-2.86L9.56-8.58L10.73-8.58L10.73-3.19Q10.78-0.84 12.89-0.80L12.89-0.80Q15.19-0.84 15.19-3.19L15.19-3.19ZM23.81 0L22.97-2.48L19.50-2.48L18.61 0L17.44 0L20.67-8.58L21.98-8.58L25.08 0L23.81 0ZM21.23-7.31L19.88-3.52L22.55-3.52L21.28-7.31L21.23-7.31ZM26.81-5.53L25.92-5.53L25.92-8.58L26.81-8.58L26.81-5.53ZM34.03 0L33.19-2.48L29.72-2.48L28.83 0L27.66 0L30.89-8.58L32.20-8.58L35.30 0L34.03 0ZM31.45-7.31L30.09-3.52L32.77-3.52L31.50-7.31L31.45-7.31ZM43.13-4.27L43.13-4.27Q42.94-7.64 40.13-7.83L40.13-7.83Q37.27-7.69 37.13-4.27L37.13-4.27Q37.27-0.94 40.13-0.80L40.13-0.80Q42.94-0.98 43.13-4.27ZM44.30-4.27L44.30-4.27Q44.02 0 40.13 0.14L40.13 0.14Q36.19 0 35.91-4.27L35.91-4.27Q36.14-8.72 40.13-8.81L40.13-8.81Q44.02-8.67 44.30-4.27Z" transform="translate(-0.890625, 8.8125)"></path></g></g></g></g></mask><defs v-gra="od"></defs></svg>